<svg id="Component_13_1" data-name="Component 13 – 1" xmlns="http://www.w3.org/2000/svg" width="51.653" height="65.625" viewBox="0 0 51.653 65.625">
  <g id="Group_112" data-name="Group 112" transform="translate(11.229) rotate(11)">
    <path id="Path_67" data-name="Path 67" d="M37.454,6.074A7.453,7.453,0,0,1,40.18,16.256L22.617,46.646a2.581,2.581,0,0,1-1.026,1L12.882,53,4.008,58.44A2.617,2.617,0,0,1,.382,57.6,2.684,2.684,0,0,1,0,56.113L.3,45.752.572,35.337a3.009,3.009,0,0,1,.351-1.217h0l17.564-30.4A7.45,7.45,0,0,1,28.664,1ZM4.359,37.529H4.331l.433,14.986,13.2-7.14Z" fill="#ffb4b4" fill-rule="evenodd"/>
    <path id="Path_68" data-name="Path 68" d="M0,9.058.348,0,10.1,5.574,2.265,11.149Z" transform="translate(2.024 44.162)" fill="#ffb4b4" fill-rule="evenodd"/>
  </g>
</svg>
